<svg width="16" height="16" viewBox="0 0 16 16" fill="none" xmlns="http://www.w3.org/2000/svg">
    <path d="M15.8673 10.744C15.809 10.8438 15.7668 10.9594 15.6886 11.0397C15.5217 11.2115 15.3088 11.2577 15.0821 11.1748C14.8553 11.0919 14.7298 10.9209 14.7001 10.682C14.6946 10.6188 14.6931 10.5553 14.6957 10.4919C14.6957 8.49011 14.6957 6.48844 14.6957 4.48689C14.6957 3.98491 14.4909 3.59668 14.0352 3.37065C13.8948 3.30337 13.7428 3.2634 13.5875 3.25286C13.3207 3.23415 13.0518 3.24772 12.7615 3.24772C12.7615 3.44844 12.7685 3.64659 12.7615 3.84437C12.7596 3.94781 12.7302 4.04887 12.6763 4.13715C12.6223 4.22543 12.5459 4.29774 12.4547 4.34663C12.3635 4.39553 12.261 4.41923 12.1576 4.41531C12.0542 4.41139 11.9537 4.37999 11.8665 4.32433C11.6831 4.20911 11.5939 4.03628 11.5906 3.82089C11.5877 3.63742 11.5906 3.45064 11.5906 3.25469H8.92366C8.92366 3.42716 8.92366 3.60072 8.92366 3.77465C8.92109 4.1493 8.68405 4.41056 8.34462 4.41423C7.9997 4.41827 7.75495 4.15407 7.75238 3.77355C7.75238 3.60329 7.75238 3.43303 7.75238 3.25323H5.11479C5.11479 3.42973 5.11479 3.60402 5.11479 3.77832C5.11222 4.15113 4.87188 4.4124 4.53245 4.41423C4.19303 4.41607 3.94535 4.1548 3.94535 3.78456C3.94535 3.60989 3.94535 3.43486 3.94535 3.22717C3.59895 3.24552 3.25733 3.2235 2.93332 3.28919C2.39208 3.39854 2.05265 3.86529 2.03981 4.42964C2.03577 4.60504 2.03981 4.78117 2.03981 4.95657C2.03981 7.79426 2.03981 10.6308 2.03981 13.4663C2.03981 13.9731 2.23392 14.373 2.70031 14.5973C2.87173 14.6785 3.05881 14.7215 3.24852 14.7231C6.66158 14.73 10.0741 14.7313 13.4862 14.7271C14.1651 14.7271 14.6461 14.2685 14.6946 13.5896C14.707 13.4172 14.7503 13.2627 14.8755 13.1398C14.942 13.0746 15.0232 13.0263 15.1121 12.9989C15.2011 12.9715 15.2954 12.9658 15.387 12.9823C15.4787 12.9987 15.5651 13.0369 15.639 13.0935C15.7129 13.1501 15.7722 13.2236 15.8119 13.3078C15.8328 13.3515 15.8508 13.3962 15.8703 13.4403V13.8212C15.859 13.8419 15.8502 13.8638 15.8438 13.8865C15.6567 15.0629 14.7107 15.897 13.5248 15.8992C10.088 15.9053 6.65094 15.9059 3.21366 15.901C2.87538 15.9066 2.54053 15.8325 2.23612 15.6849C1.33455 15.2328 0.869997 14.4989 0.868529 13.4917C0.863392 10.4898 0.862413 7.48774 0.865593 4.48542C0.865593 4.41717 0.865593 4.34855 0.870364 4.28067C0.907058 3.75227 1.09053 3.28295 1.44059 2.88628C1.92055 2.34064 2.52711 2.07387 3.25072 2.07167C3.47823 2.07167 3.7061 2.07167 3.94278 2.07167C3.94278 1.91242 3.95085 1.77078 3.94278 1.63134C3.91709 1.2666 4.06167 1.01891 4.41173 0.899658H4.64511C4.99407 1.01891 5.13938 1.2666 5.11516 1.62951C5.10562 1.77335 5.11516 1.91792 5.11516 2.06176H7.75201C7.75201 1.91095 7.76008 1.76821 7.75201 1.62951C7.72743 1.2666 7.87127 1.01891 8.2206 0.899658H8.45471C8.80404 1.01891 8.94935 1.2666 8.92513 1.62951C8.91559 1.77335 8.92513 1.91792 8.92513 2.06176H11.5913C11.5913 1.91095 11.599 1.76821 11.5895 1.62951C11.5638 1.2666 11.7091 1.01891 12.0574 0.899658H12.2918C12.6412 1.01891 12.7865 1.2666 12.7622 1.62987C12.7527 1.77371 12.7604 1.91829 12.7604 2.07387C13.0521 2.07387 13.3251 2.06103 13.5967 2.07608C14.5214 2.12781 15.2057 2.56888 15.6222 3.39377C15.7404 3.62788 15.787 3.89794 15.8662 4.15187L15.8673 10.744Z"
          fill="white"/>
    <path d="M10.9035 12.7324C10.6547 12.7324 10.4048 12.7464 10.1567 12.7295C9.54834 12.6888 9.09516 12.2675 9.0559 11.6602C9.02287 11.1388 9.02287 10.6159 9.0559 10.0945C9.09259 9.49674 9.52742 9.06521 10.1252 9.02852C10.6417 8.99733 11.1597 8.99733 11.6762 9.02852C12.274 9.06521 12.7103 9.49454 12.7485 10.0927C12.7818 10.614 12.7818 11.137 12.7485 11.6584C12.707 12.2917 12.2157 12.7225 11.5775 12.7365C11.353 12.7416 11.1284 12.7365 10.9038 12.7365L10.9035 12.7324ZM11.5841 10.1976H10.2264V11.5553H11.5841V10.1976Z"
          fill="white"/>
    <path d="M5.11439 7.05464C5.11396 7.17013 5.07934 7.28291 5.0149 7.37876C4.95046 7.47461 4.85909 7.54924 4.7523 7.59323C4.64552 7.63723 4.52809 7.64863 4.41484 7.62599C4.30158 7.60335 4.19756 7.54769 4.1159 7.46602C4.03423 7.38435 3.97857 7.28033 3.95593 7.16708C3.93329 7.05382 3.94469 6.9364 3.98868 6.82962C4.03268 6.72283 4.10731 6.63146 4.20316 6.56702C4.29901 6.50258 4.41179 6.46796 4.52728 6.46753C4.68299 6.46753 4.83233 6.52938 4.94243 6.63949C5.05254 6.74959 5.11439 6.89893 5.11439 7.05464Z"
          fill="white"/>
    <path d="M6.49362 7.03977C6.4961 6.92428 6.53272 6.81211 6.59886 6.7174C6.66501 6.62269 6.75772 6.54969 6.8653 6.50761C6.97288 6.46552 7.09051 6.45623 7.20336 6.48091C7.31621 6.50559 7.41923 6.56314 7.49942 6.64629C7.57961 6.72944 7.63338 6.83448 7.65395 6.94815C7.67453 7.06182 7.66098 7.17904 7.61502 7.28502C7.56906 7.39101 7.49274 7.48101 7.3957 7.54367C7.29866 7.60634 7.18523 7.63887 7.06972 7.63716C6.91413 7.63426 6.76606 7.56972 6.65803 7.4577C6.55001 7.34569 6.49087 7.19537 6.49362 7.03977Z"
          fill="white"/>
    <path d="M10.2114 7.05672C10.2106 7.17224 10.1755 7.28492 10.1107 7.38054C10.0458 7.47617 9.95414 7.55045 9.84715 7.59402C9.74015 7.6376 9.62265 7.64851 9.50946 7.62539C9.39627 7.60226 9.29247 7.54614 9.21114 7.46409C9.1298 7.38205 9.07459 7.27775 9.05246 7.16436C9.03033 7.05098 9.04227 6.93358 9.08678 6.82697C9.13129 6.72036 9.20637 6.62932 9.30256 6.56533C9.39874 6.50134 9.51173 6.46727 9.62725 6.46741C9.78284 6.46818 9.93175 6.53069 10.0413 6.64118C10.1508 6.75168 10.212 6.90113 10.2114 7.05672Z"
          fill="white"/>
    <path d="M12.1803 6.46741C12.2958 6.46836 12.4084 6.50349 12.504 6.56838C12.5996 6.63326 12.6738 6.725 12.7173 6.83203C12.7608 6.93905 12.7717 7.05655 12.7485 7.16973C12.7253 7.2829 12.6691 7.38667 12.587 7.46795C12.5049 7.54923 12.4006 7.60438 12.2872 7.62644C12.1738 7.6485 12.0564 7.63648 11.9498 7.59191C11.8432 7.54733 11.7522 7.47219 11.6883 7.37597C11.6244 7.27974 11.5904 7.16674 11.5906 7.05122C11.5915 6.89563 11.654 6.74676 11.7646 6.6373C11.8752 6.52783 12.0247 6.46673 12.1803 6.46741Z"
          fill="white"/>
    <path d="M5.11439 9.60322C5.11396 9.71871 5.07934 9.83149 5.0149 9.92734C4.95046 10.0232 4.85909 10.0978 4.7523 10.1418C4.64552 10.1858 4.52809 10.1972 4.41484 10.1746C4.30158 10.1519 4.19756 10.0963 4.1159 10.0146C4.03423 9.93294 3.97857 9.82892 3.95593 9.71566C3.93329 9.60241 3.94469 9.48499 3.98868 9.3782C4.03268 9.27141 4.10731 9.18004 4.20316 9.1156C4.29901 9.05117 4.41179 9.01655 4.52728 9.01611C4.68299 9.01611 4.83233 9.07797 4.94243 9.18807C5.05254 9.29818 5.11439 9.44751 5.11439 9.60322Z"
          fill="white"/>
    <path d="M7.66332 9.60653C7.66231 9.72205 7.62711 9.83468 7.56216 9.93022C7.49721 10.0258 7.40542 10.0999 7.29837 10.1434C7.19132 10.1868 7.07381 10.1976 6.96065 10.1743C6.84749 10.151 6.74375 10.0948 6.66252 10.0126C6.5813 9.9305 6.52621 9.82613 6.50422 9.71272C6.48223 9.59931 6.49432 9.48192 6.53896 9.37537C6.58361 9.26881 6.6588 9.17787 6.75507 9.114C6.85133 9.05013 6.96436 9.0162 7.07988 9.01648C7.23547 9.01745 7.3843 9.08014 7.4937 9.19077C7.6031 9.30141 7.6641 9.45094 7.66332 9.60653Z"
          fill="white"/>
    <path d="M5.11436 12.1433C5.11571 12.2588 5.08284 12.3721 5.01987 12.469C4.9569 12.5659 4.86666 12.6419 4.76053 12.6875C4.65441 12.7332 4.53714 12.7463 4.42353 12.7254C4.30992 12.7045 4.20505 12.6504 4.12215 12.5699C4.03925 12.4895 3.98202 12.3863 3.9577 12.2734C3.93337 12.1604 3.94303 12.0428 3.98546 11.9354C4.02788 11.8279 4.10118 11.7354 4.19609 11.6696C4.29101 11.6037 4.4033 11.5675 4.51881 11.5654C4.6744 11.5631 4.82452 11.6227 4.93619 11.7311C5.04786 11.8395 5.11194 11.9877 5.11436 12.1433Z"
          fill="white"/>
    <path d="M7.66334 12.1488C7.66362 12.2643 7.6297 12.3773 7.56584 12.4735C7.50199 12.5698 7.41107 12.645 7.30454 12.6896C7.19801 12.7343 7.08064 12.7464 6.96724 12.7244C6.85383 12.7025 6.74947 12.6474 6.66731 12.5662C6.58515 12.485 6.52886 12.3813 6.50556 12.2682C6.48225 12.1551 6.49297 12.0376 6.53635 11.9305C6.57973 11.8235 6.65384 11.7317 6.74934 11.6667C6.84483 11.6017 6.95742 11.5664 7.07293 11.5653C7.22858 11.5644 7.3782 11.6254 7.48891 11.7348C7.59963 11.8442 7.66237 11.9931 7.66334 12.1488Z"
          fill="white"/>
</svg>
